<?xml version="1.0" encoding="UTF-8" standalone="no"?>
<!-- Created with Inkscape (http://www.inkscape.org/) -->

<svg
   xmlns:dc="http://purl.org/dc/elements/1.1/"
   xmlns:cc="http://creativecommons.org/ns#"
   xmlns:rdf="http://www.w3.org/1999/02/22-rdf-syntax-ns#"
   xmlns:svg="http://www.w3.org/2000/svg"
   xmlns="http://www.w3.org/2000/svg"
   xmlns:sodipodi="http://sodipodi.sourceforge.net/DTD/sodipodi-0.dtd"
   xmlns:inkscape="http://www.inkscape.org/namespaces/inkscape"
   id="svg3336"
   version="1.1"
   inkscape:version="0.91 r13725"
   width="112"
   height="112"
   viewBox="0 0 112 112"
   sodipodi:docname="service-ico-2.svg">
  <metadata
     id="metadata3342">
    <rdf:RDF>
      <cc:Work
         rdf:about="">
        <dc:format>image/svg+xml</dc:format>
        <dc:type
           rdf:resource="http://purl.org/dc/dcmitype/StillImage" />
        <dc:title></dc:title>
      </cc:Work>
    </rdf:RDF>
  </metadata>
  <defs
     id="defs3340" />
  <sodipodi:namedview
     pagecolor="#ffffff"
     bordercolor="#666666"
     borderopacity="1"
     objecttolerance="10"
     gridtolerance="10"
     guidetolerance="10"
     inkscape:pageopacity="0"
     inkscape:pageshadow="2"
     inkscape:window-width="1920"
     inkscape:window-height="1017"
     id="namedview3338"
     showgrid="false"
     inkscape:zoom="7.5714286"
     inkscape:cx="56"
     inkscape:cy="56"
     inkscape:window-x="-8"
     inkscape:window-y="-8"
     inkscape:window-maximized="1"
     inkscape:current-layer="svg3336" />
  <path
     style="fill:#66aafe"
     d="M 26.902716,85.361434 C 6.3926077,64.851324 0.13207562,58.015801 0.13207562,56.132076 c 0,-3.56162 52.43837838,-56.00000055 56.00000338,-56.00000055 3.56162,0 56.000011,52.43838055 56.000011,56.00000055 0,3.56162 -52.438391,55.999994 -56.000011,55.999994 -1.88373,0 -8.719253,-6.26053 -29.229363,-26.770636 z M 63.198689,72.882076 c 14.79217,-13.360075 18.06578,-22.463766 10.71945,-29.810096 -2.41745,-2.417443 -3.77037,-2.938733 -7.61298,-2.933315 -2.92781,0.0041 -5.76553,0.726743 -7.59818,1.93485 -2.88946,1.904768 -2.95506,1.904688 -5.38486,-0.0066 -3.362545,-2.644979 -10.464716,-2.587518 -14.260581,0.115376 -1.671104,1.189931 -3.371698,3.693781 -4.052798,5.967088 -1.941138,6.478944 0.756046,11.713612 11.422731,22.169118 4.945371,4.847473 9.184108,8.813579 9.419418,8.813579 0.23531,0 3.54182,-2.8125 7.3478,-6.25 z"
     id="path3346"
     inkscape:connector-curvature="0" />
</svg>
