<?xml version="1.0" encoding="UTF-8" standalone="no"?>
<!-- Created with Inkscape (http://www.inkscape.org/) -->

<svg
   xmlns:dc="http://purl.org/dc/elements/1.1/"
   xmlns:cc="http://creativecommons.org/ns#"
   xmlns:rdf="http://www.w3.org/1999/02/22-rdf-syntax-ns#"
   xmlns:svg="http://www.w3.org/2000/svg"
   xmlns="http://www.w3.org/2000/svg"
   xmlns:sodipodi="http://sodipodi.sourceforge.net/DTD/sodipodi-0.dtd"
   xmlns:inkscape="http://www.inkscape.org/namespaces/inkscape"
   id="svg3386"
   version="1.1"
   inkscape:version="0.91 r13725"
   width="112"
   height="112"
   viewBox="0 0 112 112"
   sodipodi:docname="service-ico-5.svg">
  <metadata
     id="metadata3392">
    <rdf:RDF>
      <cc:Work
         rdf:about="">
        <dc:format>image/svg+xml</dc:format>
        <dc:type
           rdf:resource="http://purl.org/dc/dcmitype/StillImage" />
        <dc:title></dc:title>
      </cc:Work>
    </rdf:RDF>
  </metadata>
  <defs
     id="defs3390" />
  <sodipodi:namedview
     pagecolor="#ffffff"
     bordercolor="#666666"
     borderopacity="1"
     objecttolerance="10"
     gridtolerance="10"
     guidetolerance="10"
     inkscape:pageopacity="0"
     inkscape:pageshadow="2"
     inkscape:window-width="1920"
     inkscape:window-height="1017"
     id="namedview3388"
     showgrid="false"
     inkscape:zoom="2.1071429"
     inkscape:cx="56"
     inkscape:cy="56"
     inkscape:window-x="-8"
     inkscape:window-y="-8"
     inkscape:window-maximized="1"
     inkscape:current-layer="svg3386" />
  <path
     style="fill:#3e3e3e"
     d="M 27.245214,85.703934 C 6.7351041,65.193824 0.47457407,58.358301 0.47457407,56.474576 c 0,-3.56162 52.43837993,-55.99999978 55.99999993,-55.99999978 3.56162,0 55.999996,52.43837978 55.999996,55.99999978 0,3.56162 -52.438376,56.000004 -55.999996,56.000004 -1.88372,0 -8.71925,-6.26053 -29.22936,-26.770646 z m 31.2656,-14.479358 c 0.0315,-2.822036 0.59092,-3.513362 4.24856,-5.25 6.45701,-3.065768 11.68131,-12.5 6.922,-12.5 -1.15642,0 -2.13298,1.146486 -2.75,3.228518 -1.11873,3.774926 -6.49623,7.771482 -10.4568,7.771482 -3.96056,0 -9.33807,-3.996556 -10.4568,-7.771482 -0.99387,-3.353621 -4.5432,-4.665211 -4.5432,-1.678858 0,4.348238 7.20822,12.45034 11.07673,12.45034 1.53136,0 1.92327,0.713209 1.92327,3.5 0,2.833333 0.38095,3.5 2,3.5 1.58231,0 2.00757,-0.678746 2.03624,-3.25 z m 2.13502,-13.404988 c 1.51794,-1.373715 1.82874,-3.210729 1.82874,-10.80887 0,-10.578502 -1.05137,-12.869475 -5.90607,-12.869475 -4.66361,0 -6.39338,2.325076 -6.89564,9.268807 -0.5233,7.234512 0.34497,12.464924 2.41242,14.53238 2.01329,2.013291 6.26761,1.952243 8.56055,-0.122842 z"
     id="path3412"
     inkscape:connector-curvature="0" />
</svg>
