<?xml version="1.0" encoding="UTF-8" standalone="no"?>
<svg
   xmlns:dc="http://purl.org/dc/elements/1.1/"
   xmlns:cc="http://creativecommons.org/ns#"
   xmlns:rdf="http://www.w3.org/1999/02/22-rdf-syntax-ns#"
   xmlns:svg="http://www.w3.org/2000/svg"
   xmlns="http://www.w3.org/2000/svg"
   viewBox="0 0 112 112"
   height="112"
   width="112"
   version="1.1"
   id="svg3336">
  <metadata
     id="metadata3342">
    <rdf:RDF>
      <cc:Work
         rdf:about="">
        <dc:format>image/svg+xml</dc:format>
        <dc:type
           rdf:resource="http://purl.org/dc/dcmitype/StillImage" />
        <dc:title></dc:title>
      </cc:Work>
    </rdf:RDF>
  </metadata>
  <defs
     id="defs3340" />
  <path
     id="path3346"
     d="M 26.770642,85.229357 C 6.2605315,64.719247 -4.7169812e-7,57.883724 -4.7169812e-7,55.999999 -4.7169812e-7,52.438379 52.438375,-5.6603774e-7 55.999995,-5.6603774e-7 59.561615,-5.6603774e-7 111.99999,52.438379 111.99999,55.999999 111.99999,59.561619 59.561615,112 55.999995,112 c -1.88372,0 -8.719238,-6.26053 -29.229353,-26.770643 z m 34.622363,-9.811145 c 0.33385,-0.869984 0.60699,-2.429151 0.60699,-3.464817 0,-2.835101 3.1935,-4.130506 6.95238,-2.820153 1.73234,0.603898 3.27044,0.933468 3.418,0.732377 0.14756,-0.201091 1.29264,-2.151816 2.54463,-4.334945 l 2.27635,-3.969324 -2.59568,-2.23271 c -3.30041,-2.838892 -3.30041,-5.81839 0,-8.657282 l 2.59568,-2.23271 -2.27635,-3.969324 c -1.25199,-2.183129 -2.39707,-4.133854 -2.54463,-4.334945 -0.14756,-0.201091 -1.68566,0.128479 -3.418,0.732377 -3.75888,1.310353 -6.95238,0.01495 -6.95238,-2.820153 0,-4.149428 -1.06667,-5.046604 -6,-5.046604 -4.93333,0 -5.999998,0.897176 -5.999998,5.046604 0,2.835101 -3.19349,4.130506 -6.95237,2.820153 -1.73235,-0.603898 -3.273604,-0.933468 -3.425017,-0.732377 -0.151414,0.201091 -1.308766,2.083251 -2.571895,4.182578 l -2.296598,3.816957 2.622941,2.737762 c 3.288399,3.43235 3.288399,4.824296 0,8.256646 l -2.622941,2.737762 2.296598,3.816957 c 1.263129,2.099327 2.420481,3.981487 2.571895,4.182578 0.151413,0.201091 1.692667,-0.128479 3.425017,-0.732377 3.75888,-1.310353 6.95237,-0.01495 6.95237,2.820153 0,4.149428 1.066668,5.046604 5.999998,5.046604 3.44174,0 4.95652,-0.444289 5.39301,-1.581787 z m -7.92772,-13.379057 c -7.572518,-3.034752 -5.627008,-14.372489 2.46625,-14.372489 4.32743,0 7.06846,2.843744 7.06846,7.333333 0,5.355215 -4.83313,8.923356 -9.53471,7.039156 z"
     style="fill:#3e3e3e" />
</svg>
