<?xml version="1.0" encoding="UTF-8" standalone="no"?>
<!-- Created with Inkscape (http://www.inkscape.org/) -->

<svg
   xmlns:dc="http://purl.org/dc/elements/1.1/"
   xmlns:cc="http://creativecommons.org/ns#"
   xmlns:rdf="http://www.w3.org/1999/02/22-rdf-syntax-ns#"
   xmlns:svg="http://www.w3.org/2000/svg"
   xmlns="http://www.w3.org/2000/svg"
   xmlns:sodipodi="http://sodipodi.sourceforge.net/DTD/sodipodi-0.dtd"
   xmlns:inkscape="http://www.inkscape.org/namespaces/inkscape"
   id="svg3414"
   version="1.1"
   inkscape:version="0.91 r13725"
   width="112"
   height="112"
   viewBox="0 0 112 112"
   sodipodi:docname="service-ico-6.svg">
  <metadata
     id="metadata3420">
    <rdf:RDF>
      <cc:Work
         rdf:about="">
        <dc:format>image/svg+xml</dc:format>
        <dc:type
           rdf:resource="http://purl.org/dc/dcmitype/StillImage" />
        <dc:title></dc:title>
      </cc:Work>
    </rdf:RDF>
  </metadata>
  <defs
     id="defs3418" />
  <sodipodi:namedview
     pagecolor="#ffffff"
     bordercolor="#666666"
     borderopacity="1"
     objecttolerance="10"
     gridtolerance="10"
     guidetolerance="10"
     inkscape:pageopacity="0"
     inkscape:pageshadow="2"
     inkscape:window-width="1920"
     inkscape:window-height="1017"
     id="namedview3416"
     showgrid="false"
     inkscape:zoom="2.1071429"
     inkscape:cx="56"
     inkscape:cy="56"
     inkscape:window-x="-8"
     inkscape:window-y="-8"
     inkscape:window-maximized="1"
     inkscape:current-layer="svg3414" />
  <path
     style="fill:#393b48"
     d="M 27.245218,85.229358 C 6.7351091,64.719248 0.47457612,57.883725 0.47457612,56 0.47457612,52.43838 52.912956,-2.7118638e-8 56.474576,-2.7118638e-8 60.036196,-2.7118638e-8 112.47458,52.43838 112.47458,56 c 0,3.56162 -52.438384,56 -56.000004,56 -1.883725,0 -8.719248,-6.26053 -29.229358,-26.770642 z M 75.474577,73.5 l 0,-3.5 -20.500001,0 -20.5,0 0,2.833333 c 0,1.558334 0.3,3.133334 0.666667,3.5 C 35.507909,76.7 44.732909,77 55.641243,77 l 19.833334,0 0,-3.5 z m -30.000001,-15 0,-7.5 -3,0 -3,0 0,7.5 0,7.5 3,0 3,0 0,-7.5 z m 13,0 0,-7.5 -3,0 -3,0 0,7.5 0,7.5 3,0 3,0 0,-7.5 z m 13.000001,0 0,-7.5 -3,0 -3,0 0,7.5 0,7.5 3,0 3,0 0,-7.5 z m 3.81955,-14.75 c -0.2447,-1.722938 -2.64627,-3.451525 -10.25217,-7.379244 L 55.109333,31.241512 45.041954,36.577597 C 37.939739,40.342035 34.880458,42.515457 34.655025,43.956841 34.341932,45.958712 34.752545,46 54.974576,46 l 20.639101,0 -0.31955,-2.25 z"
     id="path3424"
     inkscape:connector-curvature="0" />
</svg>
